<svg xmlns="http://www.w3.org/2000/svg" viewBox="0 0 32 32" fill="none">
  <defs>
    <linearGradient id="linkGradient" x1="0%" y1="0%" x2="100%" y2="100%">
      <stop offset="0%" style="stop-color:#3b82f6"/>
      <stop offset="100%" style="stop-color:#1d4ed8"/>
    </linearGradient>
  </defs>
  
  <!-- Background circle -->
  <circle cx="16" cy="16" r="15" fill="url(#linkGradient)" stroke="#1e40af" stroke-width="2"/>
  
  <!-- Chain link icon -->
  <g transform="translate(8, 8)" fill="white" stroke="white" stroke-width="0.5">
    <!-- Left link -->
    <path d="M6.5 3.5L4.5 3.5C3.1 3.5 2 4.6 2 6C2 7.4 3.1 8.5 4.5 8.5L6.5 8.5"/>
    <!-- Right link -->
    <path d="M9.5 8.5L11.5 8.5C12.9 8.5 14 7.4 14 6C14 4.6 12.9 3.5 11.5 3.5L9.5 3.5"/>
    <!-- Connection line -->
    <path d="M6 6L10 6"/>
    
    <!-- Arrow indicating shortening -->
    <g transform="translate(0, 10)">
      <path d="M4 2L12 2" stroke="white" stroke-width="1.5" fill="none"/>
      <path d="M9 0L12 2L9 4" stroke="white" stroke-width="1.5" fill="white"/>
    </g>
  </g>
</svg>